<mxfile host="app.diagrams.net" modified="2021-05-18T13:07:09.358Z" agent="5.0 (Windows NT 10.0; WOW64) AppleWebKit/537.36 (KHTML, like Gecko) Chrome/90.0.4430.93 Safari/537.36" etag="WwsnCmk2XDcAMwA8cFFd" version="14.4.8" type="github">
  <diagram id="R2ZyIHW1lYzjmQBCJ58X" name="Page-1">
    <mxGraphModel dx="1422" dy="832" grid="0" gridSize="10" guides="1" tooltips="1" connect="1" arrows="1" fold="1" page="1" pageScale="1" pageWidth="850" pageHeight="1100" math="0" shadow="0">
      <root>
        <mxCell id="0" />
        <mxCell id="1" parent="0" />
        <mxCell id="quP21nxcqmazZ15s0VAK-34" value="" style="rounded=0;whiteSpace=wrap;html=1;" vertex="1" parent="1">
          <mxGeometry x="10" y="100" width="280" height="320" as="geometry" />
        </mxCell>
        <mxCell id="quP21nxcqmazZ15s0VAK-30" value="" style="rounded=0;whiteSpace=wrap;html=1;" vertex="1" parent="1">
          <mxGeometry x="370" y="100" width="468" height="320" as="geometry" />
        </mxCell>
        <mxCell id="quP21nxcqmazZ15s0VAK-1" value="" style="ellipse;shape=cloud;whiteSpace=wrap;html=1;" vertex="1" parent="1">
          <mxGeometry x="390" y="10" width="120" height="80" as="geometry" />
        </mxCell>
        <mxCell id="quP21nxcqmazZ15s0VAK-4" value="" style="fontColor=#0066CC;verticalAlign=top;verticalLabelPosition=bottom;labelPosition=center;align=center;html=1;outlineConnect=0;fillColor=#CCCCCC;strokeColor=#6881B3;gradientColor=none;gradientDirection=north;strokeWidth=2;shape=mxgraph.networks.patch_panel;" vertex="1" parent="1">
          <mxGeometry x="400" y="300" width="100" height="35" as="geometry" />
        </mxCell>
        <mxCell id="quP21nxcqmazZ15s0VAK-5" value="" style="points=[];aspect=fixed;html=1;align=center;shadow=0;dashed=0;image;image=img/lib/allied_telesis/media_converters/Media_Converter_Standalone.svg;" vertex="1" parent="1">
          <mxGeometry x="427.2" y="200" width="45.6" height="37.2" as="geometry" />
        </mxCell>
        <mxCell id="quP21nxcqmazZ15s0VAK-7" value="" style="edgeStyle=orthogonalEdgeStyle;rounded=0;orthogonalLoop=1;jettySize=auto;html=1;" edge="1" parent="1" source="quP21nxcqmazZ15s0VAK-5">
          <mxGeometry relative="1" as="geometry">
            <mxPoint x="449.5" y="360" as="sourcePoint" />
            <mxPoint x="450" y="300" as="targetPoint" />
          </mxGeometry>
        </mxCell>
        <mxCell id="quP21nxcqmazZ15s0VAK-9" value="" style="points=[];aspect=fixed;html=1;align=center;shadow=0;dashed=0;image;image=img/lib/allied_telesis/security/Router_VPN.svg;" vertex="1" parent="1">
          <mxGeometry x="210.00000000000003" y="300" width="55.800000000000004" height="39.6" as="geometry" />
        </mxCell>
        <mxCell id="quP21nxcqmazZ15s0VAK-11" value="" style="points=[];aspect=fixed;html=1;align=center;shadow=0;dashed=0;image;image=img/lib/allied_telesis/computer_and_terminals/Server_Desktop.svg;" vertex="1" parent="1">
          <mxGeometry x="30" y="267.45" width="82.6" height="104.7" as="geometry" />
        </mxCell>
        <mxCell id="quP21nxcqmazZ15s0VAK-13" value="" style="edgeStyle=orthogonalEdgeStyle;rounded=0;orthogonalLoop=1;jettySize=auto;html=1;" edge="1" parent="1">
          <mxGeometry relative="1" as="geometry">
            <mxPoint x="400" y="320.20000000000005" as="sourcePoint" />
            <mxPoint x="260" y="320" as="targetPoint" />
            <Array as="points">
              <mxPoint x="290" y="320" />
              <mxPoint x="290" y="320" />
            </Array>
          </mxGeometry>
        </mxCell>
        <mxCell id="quP21nxcqmazZ15s0VAK-14" value="" style="endArrow=classic;startArrow=classic;html=1;entryX=0.492;entryY=0.963;entryDx=0;entryDy=0;entryPerimeter=0;" edge="1" parent="1" target="quP21nxcqmazZ15s0VAK-1">
          <mxGeometry width="50" height="50" relative="1" as="geometry">
            <mxPoint x="449.5" y="200" as="sourcePoint" />
            <mxPoint x="449.5" y="100" as="targetPoint" />
          </mxGeometry>
        </mxCell>
        <mxCell id="quP21nxcqmazZ15s0VAK-15" value="" style="edgeStyle=orthogonalEdgeStyle;rounded=0;orthogonalLoop=1;jettySize=auto;html=1;" edge="1" parent="1">
          <mxGeometry relative="1" as="geometry">
            <mxPoint x="210" y="317" as="sourcePoint" />
            <mxPoint x="112.6" y="317" as="targetPoint" />
            <Array as="points">
              <mxPoint x="132.6" y="317" />
              <mxPoint x="132.6" y="317" />
            </Array>
          </mxGeometry>
        </mxCell>
        <mxCell id="quP21nxcqmazZ15s0VAK-23" value="" style="group" vertex="1" connectable="0" parent="1">
          <mxGeometry x="21.3" y="150" width="100" height="100" as="geometry" />
        </mxCell>
        <mxCell id="quP21nxcqmazZ15s0VAK-17" value="" style="rounded=0;whiteSpace=wrap;html=1;" vertex="1" parent="quP21nxcqmazZ15s0VAK-23">
          <mxGeometry width="97.32360097323603" height="99.99999999999997" as="geometry" />
        </mxCell>
        <mxCell id="quP21nxcqmazZ15s0VAK-16" value="" style="shape=image;html=1;verticalAlign=top;verticalLabelPosition=bottom;labelBackgroundColor=#ffffff;imageAspect=0;aspect=fixed;image=https://cdn3.iconfinder.com/data/icons/humano2/128x128/apps/virtualbox.png" vertex="1" parent="quP21nxcqmazZ15s0VAK-23">
          <mxGeometry y="1.6555661274976294" width="33.33333333333334" height="33.33333333333334" as="geometry" />
        </mxCell>
        <mxCell id="quP21nxcqmazZ15s0VAK-18" value="" style="shape=image;html=1;verticalAlign=top;verticalLabelPosition=bottom;labelBackgroundColor=#ffffff;imageAspect=0;aspect=fixed;image=https://cdn3.iconfinder.com/data/icons/humano2/128x128/apps/virtualbox.png" vertex="1" parent="quP21nxcqmazZ15s0VAK-23">
          <mxGeometry x="33.333333333333336" y="1.6555661274976294" width="33.33333333333334" height="33.33333333333334" as="geometry" />
        </mxCell>
        <mxCell id="quP21nxcqmazZ15s0VAK-19" value="" style="shape=image;html=1;verticalAlign=top;verticalLabelPosition=bottom;labelBackgroundColor=#ffffff;imageAspect=0;aspect=fixed;image=https://cdn3.iconfinder.com/data/icons/humano2/128x128/apps/virtualbox.png" vertex="1" parent="quP21nxcqmazZ15s0VAK-23">
          <mxGeometry x="66.66666666666667" y="1.6555661274976294" width="33.33333333333334" height="33.33333333333334" as="geometry" />
        </mxCell>
        <mxCell id="quP21nxcqmazZ15s0VAK-20" value="" style="shape=image;html=1;verticalAlign=top;verticalLabelPosition=bottom;labelBackgroundColor=#ffffff;imageAspect=0;aspect=fixed;image=https://cdn3.iconfinder.com/data/icons/humano2/128x128/apps/virtualbox.png" vertex="1" parent="quP21nxcqmazZ15s0VAK-23">
          <mxGeometry x="66.66666666666667" y="37.54519505233114" width="33.33333333333334" height="33.33333333333334" as="geometry" />
        </mxCell>
        <mxCell id="quP21nxcqmazZ15s0VAK-21" value="" style="shape=image;html=1;verticalAlign=top;verticalLabelPosition=bottom;labelBackgroundColor=#ffffff;imageAspect=0;aspect=fixed;image=https://cdn3.iconfinder.com/data/icons/humano2/128x128/apps/virtualbox.png" vertex="1" parent="quP21nxcqmazZ15s0VAK-23">
          <mxGeometry x="33.333333333333336" y="37.54519505233114" width="33.33333333333334" height="33.33333333333334" as="geometry" />
        </mxCell>
        <mxCell id="quP21nxcqmazZ15s0VAK-22" value="" style="shape=image;html=1;verticalAlign=top;verticalLabelPosition=bottom;labelBackgroundColor=#ffffff;imageAspect=0;aspect=fixed;image=https://cdn3.iconfinder.com/data/icons/humano2/128x128/apps/virtualbox.png" vertex="1" parent="quP21nxcqmazZ15s0VAK-23">
          <mxGeometry y="40.761179828734555" width="33.33333333333334" height="33.33333333333334" as="geometry" />
        </mxCell>
        <mxCell id="quP21nxcqmazZ15s0VAK-26" value="Hosted VMs" style="text;html=1;strokeColor=none;fillColor=none;align=center;verticalAlign=middle;whiteSpace=wrap;rounded=0;" vertex="1" parent="quP21nxcqmazZ15s0VAK-23">
          <mxGeometry x="8.7" y="74.09" width="71.3" height="20" as="geometry" />
        </mxCell>
        <mxCell id="quP21nxcqmazZ15s0VAK-25" value="" style="endArrow=classic;startArrow=classic;html=1;" edge="1" parent="1">
          <mxGeometry width="50" height="50" relative="1" as="geometry">
            <mxPoint x="71" y="280" as="sourcePoint" />
            <mxPoint x="70.80000000000001" y="250" as="targetPoint" />
          </mxGeometry>
        </mxCell>
        <mxCell id="quP21nxcqmazZ15s0VAK-27" value="Dedicated Server for B2B purposes" style="text;html=1;strokeColor=none;fillColor=none;align=center;verticalAlign=middle;whiteSpace=wrap;rounded=0;" vertex="1" parent="1">
          <mxGeometry x="21.3" y="380" width="110" height="20" as="geometry" />
        </mxCell>
        <mxCell id="quP21nxcqmazZ15s0VAK-28" value="TP-link router" style="text;html=1;strokeColor=none;fillColor=none;align=center;verticalAlign=middle;whiteSpace=wrap;rounded=0;" vertex="1" parent="1">
          <mxGeometry x="192.9" y="352.15" width="90" height="20" as="geometry" />
        </mxCell>
        <mxCell id="quP21nxcqmazZ15s0VAK-29" value="Cross panel" style="text;html=1;strokeColor=none;fillColor=none;align=center;verticalAlign=middle;whiteSpace=wrap;rounded=0;" vertex="1" parent="1">
          <mxGeometry x="413.59999999999997" y="339.6" width="72.8" height="20" as="geometry" />
        </mxCell>
        <mxCell id="quP21nxcqmazZ15s0VAK-31" value="Media converter" style="text;html=1;strokeColor=none;fillColor=none;align=center;verticalAlign=middle;whiteSpace=wrap;rounded=0;" vertex="1" parent="1">
          <mxGeometry x="480" y="208.6" width="40" height="20" as="geometry" />
        </mxCell>
        <mxCell id="quP21nxcqmazZ15s0VAK-32" value="MasterTel Internet&lt;br&gt;isolated link" style="text;html=1;strokeColor=none;fillColor=none;align=center;verticalAlign=middle;whiteSpace=wrap;rounded=0;" vertex="1" parent="1">
          <mxGeometry x="415" y="26" width="67" height="55" as="geometry" />
        </mxCell>
        <mxCell id="quP21nxcqmazZ15s0VAK-33" value="&lt;b&gt;Server room &lt;br&gt;area&lt;/b&gt;" style="text;html=1;strokeColor=none;fillColor=none;align=center;verticalAlign=middle;whiteSpace=wrap;rounded=0;" vertex="1" parent="1">
          <mxGeometry x="370" y="110" width="80" height="30" as="geometry" />
        </mxCell>
        <mxCell id="quP21nxcqmazZ15s0VAK-36" value="&lt;b&gt;Video room area&lt;/b&gt;" style="text;html=1;strokeColor=none;fillColor=none;align=center;verticalAlign=middle;whiteSpace=wrap;rounded=0;" vertex="1" parent="1">
          <mxGeometry x="210" y="110" width="70" height="20" as="geometry" />
        </mxCell>
        <mxCell id="quP21nxcqmazZ15s0VAK-58" value="" style="ellipse;shape=cloud;whiteSpace=wrap;html=1;" vertex="1" parent="1">
          <mxGeometry x="614" y="10" width="120" height="80" as="geometry" />
        </mxCell>
        <mxCell id="quP21nxcqmazZ15s0VAK-59" value="" style="fontColor=#0066CC;verticalAlign=top;verticalLabelPosition=bottom;labelPosition=center;align=center;html=1;outlineConnect=0;fillColor=#CCCCCC;strokeColor=#6881B3;gradientColor=none;gradientDirection=north;strokeWidth=2;shape=mxgraph.networks.patch_panel;" vertex="1" parent="1">
          <mxGeometry x="624" y="300" width="135" height="53" as="geometry" />
        </mxCell>
        <mxCell id="quP21nxcqmazZ15s0VAK-62" value="" style="endArrow=classic;startArrow=classic;html=1;entryX=0.492;entryY=0.963;entryDx=0;entryDy=0;entryPerimeter=0;" edge="1" target="quP21nxcqmazZ15s0VAK-58" parent="1" source="quP21nxcqmazZ15s0VAK-59">
          <mxGeometry width="50" height="50" relative="1" as="geometry">
            <mxPoint x="673.5" y="200" as="sourcePoint" />
            <mxPoint x="673.5" y="100" as="targetPoint" />
          </mxGeometry>
        </mxCell>
        <mxCell id="quP21nxcqmazZ15s0VAK-63" value="&lt;b&gt;SRR LAN&lt;/b&gt;" style="text;html=1;strokeColor=none;fillColor=none;align=center;verticalAlign=middle;whiteSpace=wrap;rounded=0;" vertex="1" parent="1">
          <mxGeometry x="619" y="343" width="145" height="64" as="geometry" />
        </mxCell>
        <mxCell id="quP21nxcqmazZ15s0VAK-65" value="Beeline Internet" style="text;html=1;strokeColor=none;fillColor=none;align=center;verticalAlign=middle;whiteSpace=wrap;rounded=0;" vertex="1" parent="1">
          <mxGeometry x="639" y="26" width="67" height="55" as="geometry" />
        </mxCell>
        <mxCell id="quP21nxcqmazZ15s0VAK-67" value="Beeline Internet" style="text;html=1;strokeColor=none;fillColor=none;align=center;verticalAlign=middle;whiteSpace=wrap;rounded=0;" vertex="1" parent="1">
          <mxGeometry x="749" y="29.5" width="67" height="55" as="geometry" />
        </mxCell>
        <mxCell id="quP21nxcqmazZ15s0VAK-68" value="Samsung&lt;br&gt;Corp Net" style="ellipse;shape=cloud;whiteSpace=wrap;html=1;" vertex="1" parent="1">
          <mxGeometry x="724" y="13.5" width="120" height="80" as="geometry" />
        </mxCell>
        <mxCell id="quP21nxcqmazZ15s0VAK-69" value="" style="endArrow=classic;startArrow=classic;html=1;entryX=0.25;entryY=1;entryDx=0;entryDy=0;" edge="1" parent="1" target="quP21nxcqmazZ15s0VAK-67">
          <mxGeometry width="50" height="50" relative="1" as="geometry">
            <mxPoint x="687.89" y="300" as="sourcePoint" />
            <mxPoint x="687.002897682895" y="87.03999999999996" as="targetPoint" />
          </mxGeometry>
        </mxCell>
      </root>
    </mxGraphModel>
  </diagram>
</mxfile>
